<svg width="20" height="20" viewBox="0 0 20 20" fill="none" xmlns="http://www.w3.org/2000/svg">
<path d="M13.2877 1.04548C13.7022 0.553752 14.1622 0.146125 14.7501 0.0354323C14.8753 0.0118503 15.0016 0 15.1282 0C15.2547 0 15.3811 0.01185 15.5063 0.035432C16.0942 0.146125 16.5542 0.553753 16.9687 1.04548C17.3726 1.52465 17.8238 2.19726 18.3707 3.01238L19.8335 5.19276C20.0974 5.58618 20.0415 6.15798 19.7087 6.46992C19.3758 6.78186 18.8919 6.71581 18.628 6.32239L17.1943 4.18546C16.6218 3.33209 16.2283 2.74784 15.8974 2.35093L15.8974 17.8788C15.8974 18.3809 15.553 18.7879 15.1282 18.7879C14.7034 18.7879 14.359 18.3809 14.359 17.8788L14.359 2.35093C14.028 2.74784 13.6346 3.33209 13.0621 4.18546L11.6284 6.32239C11.3644 6.7158 10.8806 6.78186 10.5477 6.46992C10.2148 6.15798 10.1589 5.58618 10.4229 5.19276L11.8857 3.01238C12.4326 2.19726 12.8838 1.52465 13.2877 1.04548Z" fill="#2D264B"/>
<path d="M5.64104 2.12121C5.64104 1.61914 5.29664 1.21212 4.87181 1.21212C4.44698 1.21212 4.10258 1.61914 4.10258 2.12121L4.10258 17.6491C3.77165 17.2522 3.37822 16.6679 2.80569 15.8145L1.37201 13.6776C1.10806 13.2842 0.624232 13.2181 0.291342 13.5301C-0.0415476 13.842 -0.0974375 14.4138 0.166509 14.8072L1.62933 16.9876C2.17618 17.8027 2.62743 18.4754 3.03132 18.9545C3.44579 19.4462 3.90582 19.8539 4.49369 19.9646C4.61893 19.9881 4.74526 20 4.87181 20C4.99836 20 5.12469 19.9881 5.24994 19.9646C5.8378 19.8539 6.29783 19.4462 6.7123 18.9545C7.1162 18.4753 7.56744 17.8027 8.1143 16.9876L9.57711 14.8072C9.84106 14.4138 9.78517 13.842 9.45228 13.5301C9.11939 13.2181 8.63556 13.2842 8.37161 13.6776L6.93793 15.8145C6.3654 16.6679 5.97197 17.2522 5.64104 17.6491L5.64104 2.12121Z" fill="#2D264B"/>
</svg>
