<svg width="23" height="23" viewBox="0 0 23 23" fill="none" xmlns="http://www.w3.org/2000/svg">
<path d="M18.0461 17.3542C17.7532 17.0613 17.2783 17.0613 16.9854 17.3542C16.6925 17.6471 16.6925 18.1219 16.9854 18.4148L17.5157 17.8845L18.0461 17.3542ZM20.7948 22.2243C21.0877 22.5172 21.5626 22.5172 21.8555 22.2243C22.1484 21.9314 22.1484 21.4565 21.8555 21.1636L21.3252 21.694L20.7948 22.2243ZM17.5157 17.8845L16.9854 18.4148L20.7948 22.2243L21.3252 21.694L21.8555 21.1636L18.0461 17.3542L17.5157 17.8845ZM9.89661 18.8368V18.0868C5.57694 18.0868 2.07516 14.585 2.07516 10.2654H1.32516H0.575165C0.575165 15.4135 4.74852 19.5868 9.89661 19.5868V18.8368ZM18.4681 10.2654H17.7181C17.7181 14.585 14.2163 18.0868 9.89661 18.0868V18.8368V19.5868C15.0447 19.5868 19.2181 15.4135 19.2181 10.2654H18.4681ZM9.89661 1.69397V2.44397C14.2163 2.44397 17.7181 5.94574 17.7181 10.2654H18.4681H19.2181C19.2181 5.11731 15.0447 0.94397 9.89661 0.94397V1.69397ZM9.89661 1.69397V0.94397C4.74852 0.94397 0.575165 5.11731 0.575165 10.2654H1.32516H2.07516C2.07516 5.94574 5.57694 2.44397 9.89661 2.44397V1.69397Z" fill="#2D264B"/>
</svg>
